<svg width="100" height="100" viewBox="0 0 100 100" fill="none" xmlns="http://www.w3.org/2000/svg">
<rect width="100" height="100" fill="black"/>
<circle cx="51.7173" cy="48.6032" r="8.91745" fill="#EE7A2C"/>
<rect x="47.6882" y="15" width="7.20002" height="19.8166" rx="3.60001" fill="#F4CF54"/>
<rect x="47.6882" y="65.8627" width="7.20002" height="19.8166" rx="3.60001" fill="#F4BAB5"/>
<rect x="66.1833" y="50.6699" width="7.20002" height="19.8166" rx="3.60001" transform="rotate(-90 66.1833 50.6699)" fill="#0B86D1"/>
<rect x="14" y="52.2112" width="7.20002" height="19.8166" rx="3.60001" transform="rotate(-90 14 52.2112)" fill="#F4BAB5"/>
<rect x="22.2283" y="24.7522" width="7.20002" height="19.8166" rx="3.60001" transform="rotate(-45 22.2283 24.7522)" fill="#B9A0FF"/>
<rect width="7.20002" height="19.8166" rx="3.60001" transform="matrix(-0.707107 -0.707107 -0.707107 0.707107 78.9075 24.7522)" fill="#00965F"/>
<rect x="78.9075" y="72.2126" width="7.20002" height="19.8166" rx="3.60001" transform="rotate(135 78.9075 72.2126)" fill="#B9A0FF"/>
<rect width="7.20002" height="19.8166" rx="3.60001" transform="matrix(0.707107 0.707107 0.707107 -0.707107 22.2283 72.2126)" fill="#EE7A2C"/>
</svg>
